# xmcd
#
# Track frame offsets:
#	150
#	12754
#	28568
#	46187
#	63832
#	87473
#	103536
#	122011
#	148039
#	169402
#	189134
#	207686
#
# Disc length: 3093 seconds
#
# Revision: 2
# Processed by: cddbd v1.5PL3 Copyright (c) Steve Scherf et al.
# Submitted via: audiograbber 1.83.01
#
DISCID=9f0c130c
DTITLE=Zach Prather's Blues Express - Nothing but the Blues
DYEAR=2002
DGENRE=Blues
TTITLE0=Fine Little Baby
TTITLE1=In Your Soul Tonight
TTITLE2=Blue Jeas
TTITLE3=Caoillac Assembly Line
TTITLE4=Action
TTITLE5=30 Days On The Road
TTITLE6=Can't Say
TTITLE7=Breezy
TTITLE8=Trailing Me
TTITLE9=Jump
TTITLE10=Sky Is Craying
TTITLE11=Coming Back To You
EXTD=
EXTT0=
EXTT1=
EXTT2=
EXTT3=
EXTT4=
EXTT5=
EXTT6=
EXTT7=
EXTT8=
EXTT9=
EXTT10=
EXTT11=
PLAYORDER=
